<?xml version="1.0" encoding="UTF-8" standalone="no"?>
<svg
   xmlns:osb="http://www.openswatchbook.org/uri/2009/osb"
   xmlns:dc="http://purl.org/dc/elements/1.1/"
   xmlns:cc="http://creativecommons.org/ns#"
   xmlns:rdf="http://www.w3.org/1999/02/22-rdf-syntax-ns#"
   xmlns:svg="http://www.w3.org/2000/svg"
   xmlns="http://www.w3.org/2000/svg"
   xmlns:xlink="http://www.w3.org/1999/xlink"
   xmlns:sodipodi="http://sodipodi.sourceforge.net/DTD/sodipodi-0.dtd"
   xmlns:inkscape="http://www.inkscape.org/namespaces/inkscape"
   inkscape:version="1.0 (4035a4fb49, 2020-05-01)"
   sodipodi:docname="undraw_posting_photo_v65l (1).svg"
   version="1.1"
   viewBox="0 0 1050 594.02"
   height="594.02"
   width="1050"
   data-name="Layer 1"
   id="fe93ff64-a18b-49f4-bb52-e425cf20d0d6">
  <metadata
     id="metadata143">
    <rdf:RDF>
      <cc:Work
         rdf:about="">
        <dc:format>image/svg+xml</dc:format>
        <dc:type
           rdf:resource="http://purl.org/dc/dcmitype/StillImage" />
      </cc:Work>
    </rdf:RDF>
  </metadata>
  <defs
     id="defs141">
    <linearGradient
       osb:paint="solid"
       id="linearGradient3080">
      <stop
         id="stop3078"
         offset="0"
         style="stop-color:#54e14d;stop-opacity:1;" />
    </linearGradient>
    <linearGradient
       id="34819b51-4aee-4e46-acb4-23489a509fb6"
       x1="600"
       y1="824.35999"
       x2="600"
       y2="334.87"
       xlink:href="#19dcf708-dd5c-44ad-a611-182aebfaf3c5" />
    <linearGradient
       id="19dcf708-dd5c-44ad-a611-182aebfaf3c5"
       x1="219.48"
       y1="505.38"
       x2="219.48"
       gradientUnits="userSpaceOnUse">
      <stop
         offset="0"
         stop-color="gray"
         stop-opacity="0.25"
         id="stop2" />
      <stop
         offset="0.54"
         stop-color="gray"
         stop-opacity="0.12"
         id="stop4" />
      <stop
         offset="1"
         stop-color="gray"
         stop-opacity="0.1"
         id="stop6" />
    </linearGradient>
    <linearGradient
       id="cc414fb6-c720-43be-8b52-f04b3df2ea53"
       x1="617.59003"
       y1="479.82001"
       x2="617.59003"
       y2="137.05"
       xlink:href="#19dcf708-dd5c-44ad-a611-182aebfaf3c5" />
    <linearGradient
       id="linearGradient982"
       x1="219.48"
       y1="505.38"
       x2="219.48"
       gradientUnits="userSpaceOnUse">
      <stop
         offset="0"
         stop-color="gray"
         stop-opacity="0.25"
         id="stop976" />
      <stop
         offset="0.54"
         stop-color="gray"
         stop-opacity="0.12"
         id="stop978" />
      <stop
         offset="1"
         stop-color="gray"
         stop-opacity="0.1"
         id="stop980" />
    </linearGradient>
  </defs>
  <sodipodi:namedview
     inkscape:current-layer="fe93ff64-a18b-49f4-bb52-e425cf20d0d6"
     inkscape:window-maximized="1"
     inkscape:window-y="-8"
     inkscape:window-x="-8"
     inkscape:cy="456.10575"
     inkscape:cx="761.23445"
     inkscape:zoom="0.59160045"
     showgrid="false"
     id="namedview139"
     inkscape:window-height="1017"
     inkscape:window-width="1920"
     inkscape:pageshadow="2"
     inkscape:pageopacity="0"
     guidetolerance="10"
     gridtolerance="10"
     objecttolerance="10"
     borderopacity="1"
     bordercolor="#666666"
     pagecolor="#ffffff" />
  <title
     id="title2">posting photo</title>
  <ellipse
     id="ellipse4"
     opacity="0.1"
     fill="#4285f4"
     ry="33"
     rx="525"
     cy="561.02"
     cx="525" />
  <polygon
     id="polygon6"
     fill="#d0d2d5"
     points="497.09 549.99 318.9 547.71 319.43 543.14 328.04 467.75 484.53 467.75 496.04 543.14 496.92 548.85 497.09 549.99" />
  <polygon
     id="polygon8"
     opacity="0.1"
     points="496.92 548.85 408 548.85 318.9 547.71 319.43 543.14 496.04 543.14 496.92 548.85" />
  <rect
     id="rect10"
     fill="#d0d2d5"
     height="5.71"
     width="236.45"
     y="544.28"
     x="289.2" />
  <path
     id="path12"
     fill="#3f3d56"
     transform="translate(-75 -152.99)"
     d="M826.24,167.93A14.87,14.87,0,0,0,811.44,153H151.12a14.87,14.87,0,0,0-14.8,14.94V568.2H826.24Z" />
  <path
     id="path14"
     fill="#d0d2d5"
     transform="translate(-75 -152.99)"
     d="M136.32,564.2v46.88a14.8,14.8,0,0,0,14.8,14.8H811.44a14.8,14.8,0,0,0,14.8-14.8V564.2Z" />
  <rect
     id="rect16"
     fill="#fff"
     height="359.81"
     width="636.23"
     y="25.13"
     x="89.88" />
  <path
     style="stroke:#c2cfe3;stroke-opacity:1;fill:#ffffff"
     id="path18"
     fill="#4285f4"
     transform="translate(-75 -152.99)"
     d="M484.71,608.09a15.43,15.43,0,0,0,12.13-5.88v0a16.06,16.06,0,0,0,1.2-1.76L489.57,599l9.15.07a15.44,15.44,0,0,0,.29-12.22l-12.27,6.36,11.32-8.32a15.42,15.42,0,1,0-25.47,17.26v0A15.43,15.43,0,0,0,484.71,608.09Z" />
  <polygon
     id="polygon20"
     opacity="0.1"
     points="425.13 472.89 496.22 544.28 485.31 472.89 425.13 472.89" />
  <path
     transform="translate(-75 -152.99)"
     id="path22"
     opacity="0.1"
     fill="#4285f4"
     d="M709.94,364.1a1.48,1.48,0,0,0,0-.21,55.29,55.29,0,0,0-2.66-14.57c-.09-.27-.17-.54-.27-.8a55.77,55.77,0,0,0-21.32-28,55.47,55.47,0,0,0-72.69,9A78.52,78.52,0,0,0,608.57,314a248.45,248.45,0,0,1-44,1.64,177.65,177.65,0,0,0,27.91,10.14l-.34,1.27a178.73,178.73,0,0,1-31.19-11.67l-3-1.46,3.36.22a249.73,249.73,0,0,0,46.82-1.35,79.17,79.17,0,0,0-13.8-21.9c-25.18-2.54-50.17-7.82-73.48-18.3l.54-1.19c22.7,10.2,47,15.45,71.61,18a78.63,78.63,0,0,0-125,13.28A108.05,108.05,0,0,0,441.16,242a251.7,251.7,0,0,1-41.45,12.56,250.58,250.58,0,0,1-64.81,5.14,177.9,177.9,0,0,0,27.9,10.14l-.34,1.26a179,179,0,0,1-31.19-11.66l-3-1.47,3.35.22A248.9,248.9,0,0,0,440.24,241c-1.29-1.42-2.63-2.81-4-4.17-43.06.87-89.95.45-132.4-15A108.28,108.28,0,0,0,252.44,314c0,20.32,5.58,48.27,15.3,76.31A325.56,325.56,0,0,0,283,427.06c3,6,6.12,11.9,9.44,17.52h0a198.58,198.58,0,0,0,13.16,19.71c.86,1.13,1.73,2.24,2.6,3.32a120.36,120.36,0,0,0,16.42,17h0q1.82,1.52,3.67,2.9A69.49,69.49,0,0,0,338.82,494a48.34,48.34,0,0,0,19.81,5.38c.55,0,1.09,0,1.64,0v.23h294v-.23h.22a14.74,14.74,0,0,0,5-.88c10.4-3.69,20-18.5,27.93-37.21,1.76-4.15,3.44-8.49,5-12.95,1.41-3.93,2.75-8,4-12a371.64,371.64,0,0,0,9.25-36.12c2.8-13.88,4.35-26,4.35-33.68C710,365.76,710,364.93,709.94,364.1Z" />
  <path
     id="path24"
     opacity="0.1"
     fill="#4285f4"
     transform="translate(-75 -152.99)"
     d="M434.91,235.5a107.89,107.89,0,0,0-129.62-14.61C346.83,235.77,392.68,236.32,434.91,235.5Z" />
  <path
     id="path26"
     opacity="0.1"
     fill="#4285f4"
     transform="translate(-75 -152.99)"
     d="M675.72,477.05l-45.37-78.59a1.45,1.45,0,0,0-2.51,0l-45.37,78.59a1.45,1.45,0,0,0,1.25,2.17h13.54a1.46,1.46,0,0,1,1.45,1.44v16.79a1.44,1.44,0,0,0,1.44,1.45h17.66a1.45,1.45,0,0,0,1.45-1.45v-8.1a1.44,1.44,0,0,1,1.44-1.45h16.79a1.45,1.45,0,0,1,1.45,1.45v8.1a1.45,1.45,0,0,0,1.45,1.45H658a1.44,1.44,0,0,0,1.37-1,1.34,1.34,0,0,0,.08-.46V480.66a1.45,1.45,0,0,1,1.45-1.44h13.53A1.45,1.45,0,0,0,675.72,477.05Zm-63.26,8.69a1.4,1.4,0,0,1-1,.43h-6.37a1.45,1.45,0,0,1-1.45-1.45,1.47,1.47,0,0,1,1.45-1.45h6.37a1.45,1.45,0,0,1,1.45,1.45A1.4,1.4,0,0,1,612.46,485.74Zm41.68,0a1.4,1.4,0,0,1-1,.43h-6.37a1.45,1.45,0,0,1-1-2.47,1.4,1.4,0,0,1,1-.43h6.37a1.45,1.45,0,0,1,1.45,1.45A1.4,1.4,0,0,1,654.14,485.74Z" />
  <path
     id="path28"
     opacity="0.1"
     fill="#4285f4"
     transform="translate(-75 -152.99)"
     d="M395.28,477.74l-45.37-78.59a1.45,1.45,0,0,0-2.5,0L308.21,467A119.89,119.89,0,0,0,324.63,484H331a1.45,1.45,0,0,1,1.45,1.45,1.47,1.47,0,0,1-1.45,1.45h-2.69a70.22,70.22,0,0,0,10.51,6.53V490a1.44,1.44,0,0,1,1.45-1.44h16.79A1.44,1.44,0,0,1,358.5,490v8.1a1.51,1.51,0,0,0,.13.61,1.44,1.44,0,0,0,1.32.84h17.66a1.41,1.41,0,0,0,1.15-.58,1.44,1.44,0,0,0,.29-.87V481.36a1.45,1.45,0,0,1,1.45-1.45H394A1.44,1.44,0,0,0,395.28,477.74Zm-30,6.65a1.43,1.43,0,0,1,1-.43h6.36a1.45,1.45,0,0,1,1.45,1.45,1.45,1.45,0,0,1-1.45,1.45h-6.36a1.45,1.45,0,0,1-1.45-1.45A1.44,1.44,0,0,1,365.29,484.39Zm-28.5-29.08a1.44,1.44,0,0,1-1.44-1.45v-11a1.44,1.44,0,0,1,1.44-1.45h23.74a1.45,1.45,0,0,1,1.44,1.45v11a1.45,1.45,0,0,1-1.44,1.45Z" />
  <path
     id="path30"
     opacity="0.1"
     fill="#4285f4"
     transform="translate(-75 -152.99)"
     d="M574.63,336.57H518.48V324.42a2.9,2.9,0,0,0-2.9-2.9H499.09V308.58a1.82,1.82,0,0,0-1.83-1.82H476a1.83,1.83,0,0,0-1.83,1.82v12.94H454.81a2.9,2.9,0,0,0-2.9,2.9v12.14H398.37a.58.58,0,0,0-.59.59v161.2a.58.58,0,0,0,.59.59H434a.58.58,0,0,0,.59-.59V476.68a.6.6,0,0,1,.59-.6h15a.6.6,0,0,1,.59.6v21.68a.58.58,0,0,0,.59.59h70.32a.59.59,0,0,0,.59-.59V476.68a.59.59,0,0,1,.58-.6h15a.59.59,0,0,1,.59.6v21.68a.59.59,0,0,0,.59.59h35.59a.59.59,0,0,0,.59-.59V337.16A.59.59,0,0,0,574.63,336.57Zm-146.46,132a.58.58,0,0,1-.59.59h-22a.58.58,0,0,1-.59-.59v-7.5a.59.59,0,0,1,.59-.6h22a.59.59,0,0,1,.59.6Zm0-19.39a.59.59,0,0,1-.59.59h-22a.59.59,0,0,1-.59-.59v-7.51a.59.59,0,0,1,.59-.59h22a.59.59,0,0,1,.59.59Zm0-19.4a.58.58,0,0,1-.59.59h-22a.58.58,0,0,1-.59-.59v-7.5a.58.58,0,0,1,.59-.59h22a.58.58,0,0,1,.59.59Zm0-19.39a.58.58,0,0,1-.59.59h-22a.58.58,0,0,1-.59-.59v-7.5a.58.58,0,0,1,.59-.59h22a.58.58,0,0,1,.59.59Zm0-19.39a.59.59,0,0,1-.59.59h-22A.59.59,0,0,1,405,391v-7.51a.59.59,0,0,1,.59-.59h22a.59.59,0,0,1,.59.59Zm0-19.4a.58.58,0,0,1-.59.59h-22a.58.58,0,0,1-.59-.59v-7.5a.58.58,0,0,1,.59-.59h22a.58.58,0,0,1,.59.59Zm0-19.39a.58.58,0,0,1-.59.59h-22a.58.58,0,0,1-.59-.59v-7.5a.58.58,0,0,1,.59-.59h22a.58.58,0,0,1,.59.59Zm52.1,116.36a.58.58,0,0,1-.59.59h-22a.58.58,0,0,1-.59-.59v-7.5a.59.59,0,0,1,.59-.6h22a.59.59,0,0,1,.59.6Zm0-19.39a.59.59,0,0,1-.59.59h-22a.59.59,0,0,1-.59-.59v-7.51a.59.59,0,0,1,.59-.59h22a.59.59,0,0,1,.59.59Zm0-19.4a.58.58,0,0,1-.59.59h-22a.58.58,0,0,1-.59-.59v-7.5a.58.58,0,0,1,.59-.59h22a.58.58,0,0,1,.59.59Zm0-19.39a.58.58,0,0,1-.59.59h-22a.58.58,0,0,1-.59-.59v-7.5a.58.58,0,0,1,.59-.59h22a.58.58,0,0,1,.59.59Zm0-19.39a.59.59,0,0,1-.59.59h-22a.59.59,0,0,1-.59-.59v-7.51a.59.59,0,0,1,.59-.59h22a.59.59,0,0,1,.59.59Zm0-19.4a.58.58,0,0,1-.59.59h-22a.58.58,0,0,1-.59-.59v-7.5a.58.58,0,0,1,.59-.59h22a.58.58,0,0,1,.59.59Zm0-19.39a.58.58,0,0,1-.59.59h-22a.58.58,0,0,1-.59-.59v-7.5a.58.58,0,0,1,.59-.59h22a.58.58,0,0,1,.59.59Zm35.61,116.36a.59.59,0,0,1-.59.59h-22a.59.59,0,0,1-.59-.59v-7.5a.6.6,0,0,1,.59-.6h22a.6.6,0,0,1,.59.6Zm0-19.39a.6.6,0,0,1-.59.59h-22a.6.6,0,0,1-.59-.59v-7.51a.6.6,0,0,1,.59-.59h22a.6.6,0,0,1,.59.59Zm0-19.4a.59.59,0,0,1-.59.59h-22a.59.59,0,0,1-.59-.59v-7.5a.59.59,0,0,1,.59-.59h22a.59.59,0,0,1,.59.59Zm0-19.39a.59.59,0,0,1-.59.59h-22a.59.59,0,0,1-.59-.59v-7.5a.59.59,0,0,1,.59-.59h22a.59.59,0,0,1,.59.59Zm0-19.39a.6.6,0,0,1-.59.59h-22a.6.6,0,0,1-.59-.59v-7.51a.6.6,0,0,1,.59-.59h22a.6.6,0,0,1,.59.59Zm0-19.4a.59.59,0,0,1-.59.59h-22a.59.59,0,0,1-.59-.59v-7.5a.59.59,0,0,1,.59-.59h22a.59.59,0,0,1,.59.59Zm0-19.39a.59.59,0,0,1-.59.59h-22a.59.59,0,0,1-.59-.59v-7.5a.59.59,0,0,1,.59-.59h22a.59.59,0,0,1,.59.59ZM568,468.55a.59.59,0,0,1-.59.59h-22a.58.58,0,0,1-.59-.59v-7.5a.59.59,0,0,1,.59-.6h22a.6.6,0,0,1,.59.6Zm0-19.39a.6.6,0,0,1-.59.59h-22a.59.59,0,0,1-.59-.59v-7.51a.59.59,0,0,1,.59-.59h22a.6.6,0,0,1,.59.59Zm0-19.4a.59.59,0,0,1-.59.59h-22a.58.58,0,0,1-.59-.59v-7.5a.58.58,0,0,1,.59-.59h22a.59.59,0,0,1,.59.59Zm0-19.39a.59.59,0,0,1-.59.59h-22a.58.58,0,0,1-.59-.59v-7.5a.58.58,0,0,1,.59-.59h22a.59.59,0,0,1,.59.59ZM568,391a.6.6,0,0,1-.59.59h-22a.59.59,0,0,1-.59-.59v-7.51a.59.59,0,0,1,.59-.59h22a.6.6,0,0,1,.59.59Zm0-19.4a.59.59,0,0,1-.59.59h-22a.58.58,0,0,1-.59-.59v-7.5a.58.58,0,0,1,.59-.59h22a.59.59,0,0,1,.59.59Zm0-19.39a.59.59,0,0,1-.59.59h-22a.58.58,0,0,1-.59-.59v-7.5a.58.58,0,0,1,.59-.59h22a.59.59,0,0,1,.59.59Z" />
  <path
     id="path32"
     opacity="0.1"
     fill="#4285f4"
     transform="translate(-75 -152.99)"
     d="M414.7,292.87a12.6,12.6,0,0,0-7.33.8,10.79,10.79,0,0,1-8.81,0,12.37,12.37,0,0,0-10.36.2,6.33,6.33,0,0,1-3,.75c-4.2,0-7.7-4.23-8.42-9.81a8.11,8.11,0,0,0,2.09-2.27c2.47-4,6.28-6.51,10.56-6.51s8.06,2.51,10.52,6.44a8.1,8.1,0,0,0,7,3.83h.11C410.4,286.28,413.3,289,414.7,292.87Z" />
  <path
     transform="translate(-75 -152.99)"
     id="path34"
     opacity="0.1"
     fill="#4285f4"
     d="M427.5,275.35l-6.79,4.31,4.12-7.5a6.73,6.73,0,0,0-4.1-1.46h-.11a8.22,8.22,0,0,1-1.41-.1l-2.3,1.45,1-1.79a8.19,8.19,0,0,1-4-3.05l-4.12,2.61,2.6-4.73a12.05,12.05,0,0,0-9.22-4.67c-4.29,0-8.1,2.55-10.57,6.52a7.87,7.87,0,0,1-7,3.76h-.23c-4.72,0-8.56,5.36-8.56,12s3.84,12,8.56,12a6.48,6.48,0,0,0,3-.74,12.3,12.3,0,0,1,10.36-.2,10.9,10.9,0,0,0,8.81,0,12.35,12.35,0,0,1,10.27.19,6.31,6.31,0,0,0,3,.73c4.72,0,8.56-5.36,8.56-12A15.22,15.22,0,0,0,427.5,275.35Z" />
  <rect
     id="rect36"
     fill="#3f3d56"
     rx="19.8"
     height="447.42"
     width="371.54"
     y="102.97"
     x="505.46" />
  <rect
     id="rect38"
     fill="#fff"
     height="357.15"
     width="336"
     y="148.11"
     x="522" />
  <circle
     id="circle40"
     fill="#fff"
     r="13.08"
     cy="528.8"
     cx="691.23" />
  <path
     id="path42"
     fill="#fff"
     transform="translate(-75 -152.99)"
     d="M766.23,288.17a6,6,0,1,1,6-6A6,6,0,0,1,766.23,288.17Z" />
  <path
     id="path44"
     fill="#fff"
     transform="translate(-75 -152.99)"
     d="M766.23,276.58a5.55,5.55,0,1,1-5.54,5.55,5.55,5.55,0,0,1,5.54-5.55m0-1a6.55,6.55,0,1,0,6.54,6.55,6.54,6.54,0,0,0-6.54-6.55Z" />
  <path
     id="path46"
     opacity="0.1"
     fill="#4285f4"
     transform="translate(-75 -152.99)"
     d="M899.2,486.3s0-.08,0-.12a32.12,32.12,0,0,0-1.55-8.47l-.15-.46A32.51,32.51,0,0,0,885.09,461a32.23,32.23,0,0,0-42.25,5.22,47.14,47.14,0,0,0-2.57-9,144.23,144.23,0,0,1-25.59,1A102.72,102.72,0,0,0,830.9,464l-.2.74A103.56,103.56,0,0,1,812.57,458l-1.76-.85,2,.13a144.61,144.61,0,0,0,27.22-.78,46.08,46.08,0,0,0-8-12.73c-14.64-1.48-29.17-4.55-42.72-10.64l.31-.7c13.2,5.94,27.35,9,41.63,10.49a45.71,45.71,0,0,0-72.66,7.72A62.74,62.74,0,0,0,743,415.31a147.66,147.66,0,0,1-24.1,7.3,145.91,145.91,0,0,1-37.68,3,102.72,102.72,0,0,0,16.22,5.89l-.2.73a102.73,102.73,0,0,1-18.13-6.78l-1.76-.85,2,.13a144.71,144.71,0,0,0,63.16-10c-.75-.83-1.53-1.63-2.33-2.42-25,.5-52.29.26-77-8.73a62.93,62.93,0,0,0-29.89,53.62c0,11.81,3.25,28.06,8.9,44.36A187.93,187.93,0,0,0,651,522.91c1.72,3.51,3.55,6.92,5.48,10.18h0a117,117,0,0,0,7.65,11.46c.5.65,1,1.3,1.52,1.93a69.63,69.63,0,0,0,9.54,9.87h0c.71.59,1.42,1.15,2.14,1.68a40.31,40.31,0,0,0,6.11,3.81A28,28,0,0,0,695,565c.31,0,.63,0,.95,0v.13H866.81V565h.12a8.76,8.76,0,0,0,2.89-.51c6-2.15,11.61-10.76,16.23-21.64,1-2.41,2-4.93,2.94-7.52.82-2.29,1.59-4.63,2.33-7a215.07,215.07,0,0,0,5.38-21,110.27,110.27,0,0,0,2.53-19.58C899.23,487.27,899.22,486.79,899.2,486.3Z" />
  <path
     id="path48"
     opacity="0.1"
     fill="#4285f4"
     transform="translate(-75 -152.99)"
     d="M739.31,411.54A62.72,62.72,0,0,0,664,403.05C688.11,411.7,714.76,412,739.31,411.54Z" />
  <path
     id="path50"
     opacity="0.1"
     fill="#4285f4"
     transform="translate(-75 -152.99)"
     d="M879.3,552l-26.37-45.69a.84.84,0,0,0-1.46,0L825.09,552a.84.84,0,0,0,.73,1.26h7.87a.85.85,0,0,1,.84.84v9.76a.85.85,0,0,0,.84.84h10.27a.85.85,0,0,0,.84-.84v-4.71a.83.83,0,0,1,.84-.84h9.76a.84.84,0,0,1,.84.84v4.71a.85.85,0,0,0,.84.84H869a.84.84,0,0,0,.8-.57.86.86,0,0,0,0-.27v-9.76a.84.84,0,0,1,.84-.84h7.87A.84.84,0,0,0,879.3,552Zm-36.77,5a.86.86,0,0,1-.6.25h-3.7a.85.85,0,0,1-.84-.84.81.81,0,0,1,.25-.6.84.84,0,0,1,.59-.25h3.7a.85.85,0,0,1,.85.85A.84.84,0,0,1,842.53,557Zm24.23,0a.86.86,0,0,1-.6.25h-3.7a.85.85,0,0,1,0-1.69h3.7a.85.85,0,0,1,.85.85A.84.84,0,0,1,866.76,557Z" />
  <path
     id="path52"
     opacity="0.1"
     fill="#4285f4"
     transform="translate(-75 -152.99)"
     d="M716.27,552.37,689.9,506.68a.84.84,0,0,0-1.46,0l-22.78,39.46A69.45,69.45,0,0,0,675.2,556h3.7a.84.84,0,0,1,.6,1.43.81.81,0,0,1-.6.25h-1.56a41,41,0,0,0,6.11,3.8v-2a.84.84,0,0,1,.84-.84h9.76a.85.85,0,0,1,.84.84v4.71a.78.78,0,0,0,.08.35.83.83,0,0,0,.76.49H706a.84.84,0,0,0,.67-.34.86.86,0,0,0,.17-.5v-9.76a.84.84,0,0,1,.84-.84h7.87A.84.84,0,0,0,716.27,552.37Zm-17.43,3.86a.83.83,0,0,1,.59-.24h3.71a.83.83,0,0,1,.59,1.43.8.8,0,0,1-.59.25h-3.71a.85.85,0,0,1-.84-.84A.86.86,0,0,1,698.84,556.23Zm-16.57-16.9a.84.84,0,0,1-.84-.85v-6.39a.84.84,0,0,1,.84-.84h13.8a.85.85,0,0,1,.84.84v6.39a.85.85,0,0,1-.84.85Z" />
  <path
     id="path54"
     opacity="0.1"
     fill="#4285f4"
     transform="translate(-75 -152.99)"
     d="M820.53,470.3H787.89v-7.05a1.69,1.69,0,0,0-1.69-1.69h-9.58V454a1.06,1.06,0,0,0-1.06-1.06H763.21a1.05,1.05,0,0,0-1.06,1.06v7.52H750.88a1.69,1.69,0,0,0-1.69,1.69v7.05H718.07a.35.35,0,0,0-.35.34v93.72a.35.35,0,0,0,.35.34h20.68a.34.34,0,0,0,.34-.34V551.75a.35.35,0,0,1,.35-.34h8.73a.35.35,0,0,1,.35.34v12.61a.34.34,0,0,0,.34.34h40.88a.34.34,0,0,0,.34-.34V551.75a.34.34,0,0,1,.34-.34h8.74a.34.34,0,0,1,.34.34v12.61a.35.35,0,0,0,.35.34h20.68a.34.34,0,0,0,.34-.34V470.64A.34.34,0,0,0,820.53,470.3ZM735.39,547a.34.34,0,0,1-.34.34H722.27a.34.34,0,0,1-.34-.34v-4.37a.34.34,0,0,1,.34-.34h12.78a.34.34,0,0,1,.34.34Zm0-11.28a.34.34,0,0,1-.34.34H722.27a.34.34,0,0,1-.34-.34v-4.36a.34.34,0,0,1,.34-.34h12.78a.34.34,0,0,1,.34.34Zm0-11.27a.34.34,0,0,1-.34.34H722.27a.34.34,0,0,1-.34-.34v-4.37a.34.34,0,0,1,.34-.34h12.78a.34.34,0,0,1,.34.34Zm0-11.28a.35.35,0,0,1-.34.35H722.27a.35.35,0,0,1-.34-.35v-4.36a.34.34,0,0,1,.34-.34h12.78a.34.34,0,0,1,.34.34Zm0-11.27a.34.34,0,0,1-.34.34H722.27a.34.34,0,0,1-.34-.34v-4.37a.34.34,0,0,1,.34-.34h12.78a.34.34,0,0,1,.34.34Zm0-11.27a.34.34,0,0,1-.34.34H722.27a.34.34,0,0,1-.34-.34v-4.37a.34.34,0,0,1,.34-.34h12.78a.34.34,0,0,1,.34.34Zm0-11.28a.34.34,0,0,1-.34.34H722.27a.34.34,0,0,1-.34-.34V475a.34.34,0,0,1,.34-.34h12.78a.34.34,0,0,1,.34.34ZM765.68,547a.34.34,0,0,1-.34.34H752.56a.34.34,0,0,1-.34-.34v-4.37a.34.34,0,0,1,.34-.34h12.78a.34.34,0,0,1,.34.34Zm0-11.28a.34.34,0,0,1-.34.34H752.56a.34.34,0,0,1-.34-.34v-4.36a.34.34,0,0,1,.34-.34h12.78a.34.34,0,0,1,.34.34Zm0-11.27a.34.34,0,0,1-.34.34H752.56a.34.34,0,0,1-.34-.34v-4.37a.34.34,0,0,1,.34-.34h12.78a.34.34,0,0,1,.34.34Zm0-11.28a.35.35,0,0,1-.34.35H752.56a.35.35,0,0,1-.34-.35v-4.36a.34.34,0,0,1,.34-.34h12.78a.34.34,0,0,1,.34.34Zm0-11.27a.34.34,0,0,1-.34.34H752.56a.34.34,0,0,1-.34-.34v-4.37a.34.34,0,0,1,.34-.34h12.78a.34.34,0,0,1,.34.34Zm0-11.27a.34.34,0,0,1-.34.34H752.56a.34.34,0,0,1-.34-.34v-4.37a.34.34,0,0,1,.34-.34h12.78a.34.34,0,0,1,.34.34Zm0-11.28a.34.34,0,0,1-.34.34H752.56a.34.34,0,0,1-.34-.34V475a.34.34,0,0,1,.34-.34h12.78a.34.34,0,0,1,.34.34ZM786.38,547a.34.34,0,0,1-.34.34H773.26a.34.34,0,0,1-.34-.34v-4.37a.34.34,0,0,1,.34-.34H786a.34.34,0,0,1,.34.34Zm0-11.28a.34.34,0,0,1-.34.34H773.26a.34.34,0,0,1-.34-.34v-4.36a.34.34,0,0,1,.34-.34H786a.34.34,0,0,1,.34.34Zm0-11.27a.34.34,0,0,1-.34.34H773.26a.34.34,0,0,1-.34-.34v-4.37a.34.34,0,0,1,.34-.34H786a.34.34,0,0,1,.34.34Zm0-11.28a.35.35,0,0,1-.34.35H773.26a.35.35,0,0,1-.34-.35v-4.36a.34.34,0,0,1,.34-.34H786a.34.34,0,0,1,.34.34Zm0-11.27a.34.34,0,0,1-.34.34H773.26a.34.34,0,0,1-.34-.34v-4.37a.34.34,0,0,1,.34-.34H786a.34.34,0,0,1,.34.34Zm0-11.27a.34.34,0,0,1-.34.34H773.26a.34.34,0,0,1-.34-.34v-4.37a.34.34,0,0,1,.34-.34H786a.34.34,0,0,1,.34.34Zm0-11.28a.34.34,0,0,1-.34.34H773.26a.34.34,0,0,1-.34-.34V475a.34.34,0,0,1,.34-.34H786a.34.34,0,0,1,.34.34ZM816.67,547a.35.35,0,0,1-.34.34H803.55a.34.34,0,0,1-.34-.34v-4.37a.34.34,0,0,1,.34-.34h12.78a.34.34,0,0,1,.34.34Zm0-11.28a.34.34,0,0,1-.34.34H803.55a.34.34,0,0,1-.34-.34v-4.36a.34.34,0,0,1,.34-.34h12.78a.34.34,0,0,1,.34.34Zm0-11.27a.34.34,0,0,1-.34.34H803.55a.34.34,0,0,1-.34-.34v-4.37a.34.34,0,0,1,.34-.34h12.78a.35.35,0,0,1,.34.34Zm0-11.28a.35.35,0,0,1-.34.35H803.55a.35.35,0,0,1-.34-.35v-4.36a.34.34,0,0,1,.34-.34h12.78a.34.34,0,0,1,.34.34Zm0-11.27a.34.34,0,0,1-.34.34H803.55a.34.34,0,0,1-.34-.34v-4.37a.34.34,0,0,1,.34-.34h12.78a.35.35,0,0,1,.34.34Zm0-11.27a.35.35,0,0,1-.34.34H803.55a.34.34,0,0,1-.34-.34v-4.37a.34.34,0,0,1,.34-.34h12.78a.34.34,0,0,1,.34.34Zm0-11.28a.34.34,0,0,1-.34.34H803.55a.34.34,0,0,1-.34-.34V475a.34.34,0,0,1,.34-.34h12.78a.34.34,0,0,1,.34.34Z" />
  <path
     id="path56"
     opacity="0.1"
     fill="#4285f4"
     transform="translate(-75 -152.99)"
     d="M727.56,444.9a7.39,7.39,0,0,0-4.26.46,6.34,6.34,0,0,1-2.55.54,6.24,6.24,0,0,1-2.57-.55,7.18,7.18,0,0,0-6,.12,3.72,3.72,0,0,1-1.73.43c-2.44,0-4.47-2.46-4.89-5.7a4.82,4.82,0,0,0,1.22-1.32,6.86,6.86,0,0,1,12.25,0,4.68,4.68,0,0,0,4,2.23h.07C725.06,441.07,726.74,442.62,727.56,444.9Z" />
  <path
     id="path58"
     opacity="0.1"
     fill="#4285f4"
     transform="translate(-75 -152.99)"
     d="M735,434.71l-4,2.51,2.4-4.36a3.92,3.92,0,0,0-2.39-.85H731a5.55,5.55,0,0,1-.82-.06l-1.34.84.58-1a4.72,4.72,0,0,1-2.34-1.77l-2.4,1.51,1.52-2.75a7,7,0,0,0-5.37-2.71,7.35,7.35,0,0,0-6.14,3.79,4.6,4.6,0,0,1-4.06,2.19h-.13c-2.75,0-5,3.11-5,7s2.23,7,5,7a3.73,3.73,0,0,0,1.73-.44,7.18,7.18,0,0,1,6-.11,6.41,6.41,0,0,0,2.57.55,6.34,6.34,0,0,0,2.55-.54,7.19,7.19,0,0,1,6,.11,3.64,3.64,0,0,0,1.71.43c2.75,0,5-3.12,5-7A8.86,8.86,0,0,0,735,434.71Z" />
  <rect
     id="rect60"
     fill="#3f3d56"
     rx="2.29"
     height="44.17"
     width="5.36"
     y="269.17"
     x="988.64" />
  <rect
     id="rect62"
     fill="#3f3d56"
     rx="1.5"
     height="14.54"
     width="3.01"
     y="234.57"
     x="810.55" />
  <rect
     id="rect64"
     fill="#3f3d56"
     rx="1.69"
     height="25.31"
     width="3.39"
     y="261.19"
     x="810.44" />
  <rect
     id="rect66"
     fill="#3f3d56"
     rx="1.61"
     height="25.53"
     width="3.23"
     y="295.35"
     x="810.49" />
  <rect
     id="rect68"
     fill="#3f3d56"
     rx="18.54"
     height="364.37"
     width="179.29"
     y="186.51"
     x="812.25" />
  <rect
     id="rect70"
     fill="#e6e8ec"
     rx="2.54"
     height="5.08"
     width="25.04"
     y="197.39"
     x="884.6" />
  <circle
     id="circle72"
     fill="#e6e8ec"
     r="2.88"
     cy="199.94"
     cx="916.3" />
  <path
     id="path74"
     fill="#fff"
     transform="translate(-75 -152.99)"
     d="M1041.22,349H1020.7v2.47A11.73,11.73,0,0,1,1009,363.19H943.54a11.73,11.73,0,0,1-11.73-11.73V349H912.56a14.25,14.25,0,0,0-14.24,14.24V680.14a14.24,14.24,0,0,0,14.24,14.24h128.66a14.23,14.23,0,0,0,14.24-14.24V363.23A14.24,14.24,0,0,0,1041.22,349Z" />
  <path
     id="path76"
     opacity="0.1"
     fill="#4285f4"
     transform="translate(-75 -152.99)"
     d="M1037.2,524.68v0a14.33,14.33,0,0,0-.7-3.83,1.72,1.72,0,0,0-.07-.21,14.56,14.56,0,0,0-24.65-5,20.46,20.46,0,0,0-1.16-4.07,65.66,65.66,0,0,1-11.55.43,47.79,47.79,0,0,0,7.32,2.66l-.09.33a46.82,46.82,0,0,1-8.18-3.06l-.79-.39.88.06a65.38,65.38,0,0,0,12.28-.35,20.79,20.79,0,0,0-3.62-5.75,61.91,61.91,0,0,1-19.27-4.79l.14-.32a60.89,60.89,0,0,0,18.78,4.73,20.63,20.63,0,0,0-32.78,3.49,28.35,28.35,0,0,0-7-15.94,66.32,66.32,0,0,1-27.87,4.64,46.76,46.76,0,0,0,7.32,2.66l-.09.33a46.82,46.82,0,0,1-8.18-3.06l-.79-.38.88.06a65.26,65.26,0,0,0,28.49-4.52c-.34-.37-.69-.73-1.05-1.09-11.29.23-23.59.12-34.72-3.94a28.4,28.4,0,0,0-13.48,24.19c0,5.33,1.46,12.66,4,20a83.69,83.69,0,0,0,4,9.64q1.17,2.38,2.47,4.6h0a54,54,0,0,0,3.45,5.17l.69.87a32,32,0,0,0,4.3,4.45h0c.32.27.64.52,1,.76a18.94,18.94,0,0,0,2.75,1.72,12.92,12.92,0,0,0,5.2,1.41h.43v.05h77.09v-.05h.06a3.92,3.92,0,0,0,1.3-.23c2.73-1,5.24-4.85,7.32-9.76.47-1.09.91-2.23,1.33-3.4s.72-2.08,1.05-3.15c1-3.2,1.82-6.49,2.43-9.47a50.32,50.32,0,0,0,1.14-8.83C1037.22,525.12,1037.21,524.9,1037.2,524.68Z" />
  <path
     id="path78"
     opacity="0.1"
     fill="#4285f4"
     transform="translate(-75 -152.99)"
     d="M965.07,491a28.3,28.3,0,0,0-34-3.83C942,491,954,491.17,965.07,491Z" />
  <path
     id="path80"
     opacity="0.1"
     fill="#4285f4"
     transform="translate(-75 -152.99)"
     d="M1028.23,554.3l-11.9-20.61a.38.38,0,0,0-.66,0l-11.9,20.61a.38.38,0,0,0,.33.57h3.55a.38.38,0,0,1,.38.38v4.4a.38.38,0,0,0,.38.38H1013a.38.38,0,0,0,.38-.38v-2.12a.38.38,0,0,1,.38-.38h4.4a.38.38,0,0,1,.38.38v2.12a.38.38,0,0,0,.38.38h4.63a.38.38,0,0,0,.36-.26.37.37,0,0,0,0-.12v-4.4a.38.38,0,0,1,.38-.38h3.55A.38.38,0,0,0,1028.23,554.3Zm-16.59,2.28a.39.39,0,0,1-.27.11h-1.67a.38.38,0,0,1-.38-.38.35.35,0,0,1,.11-.26.4.4,0,0,1,.27-.12h1.67a.38.38,0,0,1,.38.38A.37.37,0,0,1,1011.64,556.58Zm10.93,0a.37.37,0,0,1-.27.11h-1.67a.38.38,0,0,1-.38-.38.35.35,0,0,1,.11-.26.4.4,0,0,1,.27-.12h1.67a.38.38,0,0,1,.38.38A.37.37,0,0,1,1022.57,556.58Z" />
  <path
     id="path82"
     opacity="0.1"
     fill="#4285f4"
     transform="translate(-75 -152.99)"
     d="M954.68,554.48l-11.9-20.61a.38.38,0,0,0-.66,0l-10.27,17.8a32,32,0,0,0,4.3,4.45h1.67a.38.38,0,1,1,0,.75h-.7a18.94,18.94,0,0,0,2.75,1.72v-.88a.38.38,0,0,1,.38-.38h4.41a.38.38,0,0,1,.37.38v2.12a.39.39,0,0,0,.38.38h4.64a.38.38,0,0,0,.3-.15.35.35,0,0,0,.07-.23v-4.4a.38.38,0,0,1,.38-.38h3.55A.38.38,0,0,0,954.68,554.48Zm-7.86,1.75a.35.35,0,0,1,.26-.11h1.67a.38.38,0,1,1,0,.75h-1.67a.38.38,0,0,1-.38-.38A.37.37,0,0,1,946.82,556.23Zm-7.48-7.63a.38.38,0,0,1-.38-.38v-2.88a.38.38,0,0,1,.38-.38h6.23a.38.38,0,0,1,.38.38v2.88a.38.38,0,0,1-.38.38Z" />
  <path
     id="path84"
     opacity="0.1"
     fill="#4285f4"
     transform="translate(-75 -152.99)"
     d="M1001.72,517.46H987v-3.19a.76.76,0,0,0-.76-.76H981.9v-3.39a.48.48,0,0,0-.47-.48h-5.57a.48.48,0,0,0-.48.48v3.39h-5.09a.76.76,0,0,0-.76.76v3.19h-14a.15.15,0,0,0-.15.15v42.28a.16.16,0,0,0,.15.16h9.33a.16.16,0,0,0,.16-.16V554.2a.15.15,0,0,1,.15-.15h3.94a.16.16,0,0,1,.16.15v5.69a.16.16,0,0,0,.15.16h18.44a.16.16,0,0,0,.16-.16V554.2a.15.15,0,0,1,.15-.15h3.94a.16.16,0,0,1,.16.15v5.69a.16.16,0,0,0,.15.16h9.34a.16.16,0,0,0,.15-.16V517.61A.15.15,0,0,0,1001.72,517.46Zm-38.41,34.61a.16.16,0,0,1-.16.16h-5.76a.16.16,0,0,1-.16-.16v-2a.16.16,0,0,1,.16-.15h5.76a.16.16,0,0,1,.16.15Zm0-5.08a.16.16,0,0,1-.16.15h-5.76a.16.16,0,0,1-.16-.15v-2a.16.16,0,0,1,.16-.16h5.76a.16.16,0,0,1,.16.16Zm0-5.09a.16.16,0,0,1-.16.16h-5.76a.16.16,0,0,1-.16-.16v-2a.16.16,0,0,1,.16-.15h5.76a.16.16,0,0,1,.16.15Zm0-5.09a.16.16,0,0,1-.16.16h-5.76a.16.16,0,0,1-.16-.16v-2a.16.16,0,0,1,.16-.16h5.76a.16.16,0,0,1,.16.16Zm0-5.08a.16.16,0,0,1-.16.15h-5.76a.16.16,0,0,1-.16-.15v-2a.16.16,0,0,1,.16-.15h5.76a.16.16,0,0,1,.16.15Zm0-5.09a.16.16,0,0,1-.16.16h-5.76a.16.16,0,0,1-.16-.16v-2a.16.16,0,0,1,.16-.15h5.76a.16.16,0,0,1,.16.15Zm0-5.08a.16.16,0,0,1-.16.15h-5.76a.16.16,0,0,1-.16-.15v-2a.16.16,0,0,1,.16-.16h5.76a.16.16,0,0,1,.16.16ZM977,552.07a.16.16,0,0,1-.15.16h-5.77a.16.16,0,0,1-.15-.16v-2a.15.15,0,0,1,.15-.15h5.77a.15.15,0,0,1,.15.15Zm0-5.08a.15.15,0,0,1-.15.15h-5.77a.15.15,0,0,1-.15-.15v-2a.16.16,0,0,1,.15-.16h5.77a.16.16,0,0,1,.15.16Zm0-5.09a.16.16,0,0,1-.15.16h-5.77a.16.16,0,0,1-.15-.16v-2a.15.15,0,0,1,.15-.15h5.77a.15.15,0,0,1,.15.15Zm0-5.09a.16.16,0,0,1-.15.16h-5.77a.16.16,0,0,1-.15-.16v-2a.16.16,0,0,1,.15-.16h5.77a.16.16,0,0,1,.15.16Zm0-5.08a.15.15,0,0,1-.15.15h-5.77a.15.15,0,0,1-.15-.15v-2a.15.15,0,0,1,.15-.15h5.77a.15.15,0,0,1,.15.15Zm0-5.09a.16.16,0,0,1-.15.16h-5.77a.16.16,0,0,1-.15-.16v-2a.15.15,0,0,1,.15-.15h5.77a.15.15,0,0,1,.15.15Zm0-5.08a.15.15,0,0,1-.15.15h-5.77a.15.15,0,0,1-.15-.15v-2a.16.16,0,0,1,.15-.16h5.77a.16.16,0,0,1,.15.16Zm9.34,30.51a.16.16,0,0,1-.16.16h-5.76a.16.16,0,0,1-.16-.16v-2a.16.16,0,0,1,.16-.15h5.76a.16.16,0,0,1,.16.15Zm0-5.08a.16.16,0,0,1-.16.15h-5.76a.16.16,0,0,1-.16-.15v-2a.16.16,0,0,1,.16-.16h5.76a.16.16,0,0,1,.16.16Zm0-5.09a.16.16,0,0,1-.16.16h-5.76a.16.16,0,0,1-.16-.16v-2a.16.16,0,0,1,.16-.15h5.76a.16.16,0,0,1,.16.15Zm0-5.09a.16.16,0,0,1-.16.16h-5.76a.16.16,0,0,1-.16-.16v-2a.16.16,0,0,1,.16-.16h5.76a.16.16,0,0,1,.16.16Zm0-5.08a.16.16,0,0,1-.16.15h-5.76a.16.16,0,0,1-.16-.15v-2a.16.16,0,0,1,.16-.15h5.76a.16.16,0,0,1,.16.15Zm0-5.09a.16.16,0,0,1-.16.16h-5.76a.16.16,0,0,1-.16-.16v-2a.16.16,0,0,1,.16-.15h5.76a.16.16,0,0,1,.16.15Zm0-5.08a.16.16,0,0,1-.16.15h-5.76a.16.16,0,0,1-.16-.15v-2a.16.16,0,0,1,.16-.16h5.76a.16.16,0,0,1,.16.16ZM1000,552.07a.16.16,0,0,1-.15.16h-5.77a.16.16,0,0,1-.15-.16v-2a.15.15,0,0,1,.15-.15h5.77a.15.15,0,0,1,.15.15Zm0-5.08a.15.15,0,0,1-.15.15h-5.77a.15.15,0,0,1-.15-.15v-2a.16.16,0,0,1,.15-.16h5.77a.16.16,0,0,1,.15.16Zm0-5.09a.16.16,0,0,1-.15.16h-5.77a.16.16,0,0,1-.15-.16v-2a.15.15,0,0,1,.15-.15h5.77a.15.15,0,0,1,.15.15Zm0-5.09a.16.16,0,0,1-.15.16h-5.77a.16.16,0,0,1-.15-.16v-2a.16.16,0,0,1,.15-.16h5.77a.16.16,0,0,1,.15.16Zm0-5.08a.15.15,0,0,1-.15.15h-5.77a.15.15,0,0,1-.15-.15v-2a.15.15,0,0,1,.15-.15h5.77a.15.15,0,0,1,.15.15Zm0-5.09a.16.16,0,0,1-.15.16h-5.77a.16.16,0,0,1-.15-.16v-2a.15.15,0,0,1,.15-.15h5.77a.15.15,0,0,1,.15.15Zm0-5.08a.15.15,0,0,1-.15.15h-5.77a.15.15,0,0,1-.15-.15v-2a.16.16,0,0,1,.15-.16h5.77a.16.16,0,0,1,.15.16Z" />
  <path
     id="path86"
     opacity="0.1"
     fill="#4285f4"
     transform="translate(-75 -152.99)"
     d="M959.77,506a3.33,3.33,0,0,0-1.92.21,2.82,2.82,0,0,1-1.15.24,2.72,2.72,0,0,1-1.16-.25,3.27,3.27,0,0,0-2.72.06,1.73,1.73,0,0,1-.78.19c-1.1,0-2-1.11-2.21-2.57a2.06,2.06,0,0,0,.55-.59,3.1,3.1,0,0,1,5.53,0,2.11,2.11,0,0,0,1.83,1h0A2.28,2.28,0,0,1,959.77,506Z" />
  <path
     id="path88"
     opacity="0.1"
     fill="#4285f4"
     transform="translate(-75 -152.99)"
     d="M963.13,501.41l-1.78,1.12,1.08-2a1.75,1.75,0,0,0-1.08-.39h0a1.51,1.51,0,0,1-.37,0l-.61.38.26-.47a2.19,2.19,0,0,1-1.05-.8l-1.08.68.68-1.24a3.16,3.16,0,0,0-2.42-1.22A3.3,3.3,0,0,0,954,499.2a2.09,2.09,0,0,1-1.83,1h-.06c-1.24,0-2.25,1.41-2.25,3.14s1,3.14,2.25,3.14a1.64,1.64,0,0,0,.78-.19,3.23,3.23,0,0,1,2.72,0,2.9,2.9,0,0,0,2.31,0,3.24,3.24,0,0,1,2.69,0,1.6,1.6,0,0,0,.77.19c1.24,0,2.25-1.4,2.25-3.14A4,4,0,0,0,963.13,501.41Z" />
  <path
     id="path90"
     fill="#3f3d56"
     transform="translate(-75 -152.99)"
     d="M174.65,693.59a37,37,0,0,1-.8,7.76c-.1.48-.21.95-.32,1.41-2.84,11.39-10.85,19.72-20.41,20.25-.32,0-.64,0-1,0-10.11,0-18.66-8.72-21.48-20.73-.08-.32-.15-.64-.22-1a37,37,0,0,1-.8-7.76c0-16.27,10.07-29.45,22.5-29.45S174.65,677.32,174.65,693.59Z" />
  <path
     id="path92"
     opacity="0.1"
     transform="translate(-75 -152.99)"
     d="M174.65,693.59a37,37,0,0,1-.8,7.76c-.1.48-.21.95-.32,1.41-.34,0-.67,0-1,0a45.76,45.76,0,0,1-7.36-1,44.92,44.92,0,0,1-6.56,1.5,45.87,45.87,0,0,1-5.14.48l-1.74,0a46.41,46.41,0,0,1-6.16-.41,45.17,45.17,0,0,1-9.67-2.4,45.56,45.56,0,0,1-5.22,1.4c-.08-.32-.15-.64-.22-1a37,37,0,0,1-.8-7.76c0-16.27,10.07-29.45,22.5-29.45S174.65,677.32,174.65,693.59Z" />
  <path
     id="path94"
     fill="#4285f4"
     transform="translate(-75 -152.99)"
     d="M222.65,638.72a45.6,45.6,0,0,0-4.9-20.61l-26.46,8.23,23.23-13.65a45.71,45.71,0,0,0-34.36-19.59,45.65,45.65,0,0,0-3.57-4.72l-38,11.83,31.17-18.33a45.73,45.73,0,0,0-72,24.39l32.55,37.47L95,618.2a45.74,45.74,0,0,0,40.93,80.7,45.92,45.92,0,0,0,29.28.81,45.74,45.74,0,0,0,55.62-44.66c0-1,0-2-.1-3A45.74,45.74,0,0,0,222.65,638.72Z" />
  <path
     id="path96"
     opacity="0.1"
     transform="translate(-75 -152.99)"
     d="M221.86,647.2a122.14,122.14,0,0,0-42.34-.54c-15.89,2.63-32.13,8.42-47.67,4.19-9.12-2.48-17-8.22-25.91-11.41a49.18,49.18,0,0,0-26.75-1.6,45.76,45.76,0,0,0,56.69,61.06,45.92,45.92,0,0,0,29.28.81,45.74,45.74,0,0,0,55.62-44.66c0-1,0-2-.1-3A46,46,0,0,0,221.86,647.2Z" />
  <path
     style="stroke-width:5.817;stroke:#3c78dc;stroke-opacity:1;stroke-miterlimit:4;stroke-dasharray:none;fill:#3c78dc;fill-opacity:1"
     d="m 508.46289,165.95525 c -130.9548,-0.76258 -191.86508,114.9657 -191.86508,114.9657 L 440.70193,346.39 c 0,0 15.22653,-47.20474 69.28612,-45.68375 a 93.017665,93.017665 0 0 1 11.37197,1.00843 l 41.09579,-128.45037 a 209.83355,209.83355 0 0 0 -53.99292,-7.30906 z"
     fill="#4285f4"
     id="path72" />
  <path
     style="stroke-width:5.817;stroke:#d0d2d5;stroke-opacity:1;stroke-miterlimit:4;stroke-dasharray:none;fill:#d0d2d5;fill-opacity:1"
     d="M 562.45581,173.26431 521.36002,301.72719 C 566.20619,308.54037 579.27,346.39 579.27,346.39 l 124.8667,-62.42291 c 0,0 -46.91722,-84.96686 -141.68089,-110.70278 z"
     fill="#e0e0e0"
     id="path74-0" />
  <path
     sodipodi:nodetypes="cccssccccc"
     style="fill:#800000;fill-opacity:1;stroke:#800000;stroke-width:1.44368;stroke-miterlimit:4;stroke-dasharray:none;stroke-opacity:1"
     d="m 522.64789,354.34518 39.81896,-183.08853 -54.89267,178.52088 c -2.73743,4.20096 -1.74324,10.05445 2.18989,12.89353 3.93314,2.83908 9.23029,1.5269 11.66807,-2.89036 v 0 -0.0249 c 0.77558,-1.38158 1.19811,-2.96636 1.22332,-4.58841 0.0227,-0.28651 0.0114,-0.55228 -0.007,-0.82219 z"
     fill="#535461"
     id="path76-5" />
</svg>
